<svg width="6" height="22" viewBox="0 0 6 22" fill="none" xmlns="http://www.w3.org/2000/svg">
<path d="M1.26337 12.7496C1.3469 13.6197 1.48853 14.2663 1.68343 14.6929C1.88075 15.1181 2.23103 15.3302 2.73668 15.3302C2.83121 15.3302 2.91578 15.3154 2.99965 15.2982C3.08559 15.3154 3.16981 15.3302 3.26503 15.3302C3.76931 15.3302 4.12062 15.1181 4.3169 14.6929C4.51284 14.2663 4.65206 13.6197 4.73731 12.7496L5.18625 6.03207C5.26978 4.72273 5.3124 3.78326 5.3124 3.21298C5.3124 2.43679 5.10993 1.8311 4.70362 1.39626C4.29593 0.961413 3.76037 0.744507 3.09693 0.744507C3.06153 0.744507 3.03506 0.752413 3.00034 0.753788C2.96734 0.752413 2.94018 0.744507 2.90581 0.744507C2.241 0.744507 1.70646 0.961413 1.29946 1.39626C0.892808 1.83179 0.688965 2.43782 0.688965 3.21332C0.688965 3.7836 0.730559 4.72307 0.815465 6.03241L1.26337 12.7496ZM3.01718 17.7856C2.373 17.7856 1.82575 17.9887 1.37131 18.395C0.917214 18.8017 0.689652 19.2953 0.689652 19.8749C0.689652 20.529 0.919964 21.044 1.37715 21.418C1.8364 21.792 2.37196 21.979 2.98418 21.979C3.6074 21.979 4.15087 21.7947 4.61562 21.4252C5.07968 21.0567 5.31171 20.539 5.31171 19.8756C5.31171 19.296 5.08965 18.8024 4.64553 18.3957C4.2014 17.9887 3.65862 17.7856 3.01615 17.7856" fill="#9BE1A0"/>
</svg>
